<svg width="1440" height="565" viewBox="0 0 1440 565" fill="none" xmlns="http://www.w3.org/2000/svg">
<path d="M195.977 338.139C195.977 335.914 197.667 334.11 199.751 334.11C201.835 334.11 203.525 335.914 203.525 338.139C203.525 340.363 201.835 342.167 199.751 342.167C197.69 342.167 195.977 340.363 195.977 338.139Z" fill="url(#paint0_linear)"/>
<path d="M200.399 246.82H199.149V335.791H200.399V246.82Z" fill="url(#paint1_linear)"/>
<path d="M24.7729 228.581C24.7729 226.357 26.4632 224.552 28.5471 224.552C30.631 224.552 32.3213 226.357 32.3213 228.581C32.3213 230.805 30.631 232.609 28.5471 232.609C26.4632 232.609 24.7729 230.805 24.7729 228.581Z" fill="url(#paint2_linear)"/>
<path d="M29.1723 137.262H27.922V226.258H29.1723V137.262Z" fill="url(#paint3_linear)"/>
<path d="M71.684 133.901C71.684 131.677 73.3742 129.872 75.4581 129.872C77.542 129.872 79.2323 131.677 79.2323 133.901C79.2323 136.125 77.542 137.929 75.4581 137.929C73.3742 137.929 71.684 136.125 71.684 133.901Z" fill="url(#paint4_linear)"/>
<path d="M76.1064 42.5822H74.8561V131.553H76.1064V42.5822Z" fill="url(#paint5_linear)"/>
<path d="M109.379 154.34C109.379 152.115 111.07 150.311 113.153 150.311C115.237 150.311 116.928 152.115 116.928 154.34C116.928 156.564 115.237 158.368 113.153 158.368C111.093 158.393 109.379 156.589 109.379 154.34Z" fill="url(#paint6_linear)"/>
<path d="M113.802 63.0455H112.551V152.041H113.802V63.0455Z" fill="url(#paint7_linear)"/>
<path d="M170.878 384.082C170.878 381.858 172.568 380.054 174.652 380.054C176.736 380.054 178.426 381.858 178.426 384.082C178.426 386.307 176.736 388.111 174.652 388.111C172.568 388.111 170.878 386.307 170.878 384.082Z" fill="url(#paint8_linear)"/>
<path d="M175.3 292.764H174.05V381.735H175.3V292.764Z" fill="url(#paint9_linear)"/>
<path d="M229.296 124.954C229.296 122.73 230.986 120.926 233.07 120.926C235.154 120.926 236.844 122.73 236.844 124.954C236.844 127.179 235.154 128.983 233.07 128.983C230.986 128.983 229.296 127.179 229.296 124.954Z" fill="url(#paint10_linear)"/>
<path d="M233.695 33.6603H232.445V122.631H233.695V33.6603Z" fill="url(#paint11_linear)"/>
<path d="M125.124 121C125.124 118.776 126.815 116.972 128.899 116.972C130.982 116.972 132.673 118.776 132.673 121C132.673 123.225 130.982 125.029 128.899 125.029C126.815 125.029 125.124 123.225 125.124 121Z" fill="url(#paint12_linear)"/>
<path d="M129.547 74.1917H128.297V118.677H129.547V74.1917Z" fill="url(#paint13_linear)"/>
<path d="M267.478 344.663C267.478 342.439 269.168 340.635 271.252 340.635C273.336 340.635 275.026 342.439 275.026 344.663C275.026 346.888 273.336 348.692 271.252 348.692C269.191 348.692 267.478 346.888 267.478 344.663Z" fill="url(#paint14_linear)"/>
<path d="M271.9 297.83H270.65V342.315H271.9V297.83Z" fill="url(#paint15_linear)"/>
<path d="M-1.13684 33.8086C-1.13684 31.5843 0.553427 29.7802 2.63733 29.7802C4.72123 29.7802 6.41151 31.5843 6.41151 33.8086C6.41151 36.0329 4.72123 37.837 2.63733 37.837C0.576582 37.837 -1.13684 36.0329 -1.13684 33.8086Z" fill="url(#paint16_linear)"/>
<path d="M3.28562 -13H2.03528V31.4855H3.28562V-13Z" fill="url(#paint17_linear)"/>
<path d="M50.3354 108.94C50.3354 106.715 52.0257 104.911 54.1096 104.911C56.1935 104.911 57.8838 106.715 57.8838 108.94C57.8838 111.164 56.1935 112.968 54.1096 112.968C52.0257 112.968 50.3354 111.164 50.3354 108.94Z" fill="url(#paint18_linear)"/>
<path d="M54.7579 62.1063H53.5076V106.592H54.7579V62.1063Z" fill="url(#paint19_linear)"/>
<path d="M172.359 47.3026C172.359 45.0784 174.05 43.2742 176.134 43.2742C178.218 43.2742 179.908 45.0784 179.908 47.3026C179.908 49.5269 178.218 51.331 176.134 51.331C174.073 51.3558 172.359 49.5269 172.359 47.3026Z" fill="url(#paint20_linear)"/>
<path d="M176.782 0.494019H175.532V44.9795H176.782V0.494019Z" fill="url(#paint21_linear)"/>
<path d="M119.845 372.862C119.845 370.638 121.535 368.834 123.619 368.834C125.703 368.834 127.393 370.638 127.393 372.862C127.393 375.086 125.703 376.89 123.619 376.89C121.535 376.89 119.845 375.086 119.845 372.862Z" fill="url(#paint22_linear)"/>
<path d="M124.244 281.543H122.994V370.539H124.244V281.543Z" fill="url(#paint23_linear)"/>
<path d="M228.463 325.633C228.463 323.409 230.153 321.605 232.237 321.605C234.321 321.605 236.011 323.409 236.011 325.633C236.011 327.858 234.321 329.662 232.237 329.662C230.153 329.687 228.463 327.882 228.463 325.633Z" fill="url(#paint24_linear)"/>
<path d="M232.862 234.339H231.612V323.335H232.862V234.339Z" fill="url(#paint25_linear)"/>
<path d="M46.5613 549.815C46.5613 547.591 48.2516 545.787 50.3355 545.787C52.4194 545.787 54.1096 547.591 54.1096 549.815C54.1096 552.04 52.4194 553.844 50.3355 553.844C48.2516 553.869 46.5613 552.04 46.5613 549.815Z" fill="url(#paint26_linear)"/>
<path d="M50.9607 240.468H49.7103V547.492H50.9607V240.468Z" fill="url(#paint27_linear)"/>
<path d="M206.605 374.024C206.605 371.8 208.295 369.995 210.379 369.995C212.463 369.995 214.153 371.8 214.153 374.024C214.153 376.248 212.463 378.052 210.379 378.052C208.295 378.052 206.605 376.248 206.605 374.024Z" fill="url(#paint28_linear)"/>
<path d="M211.004 64.6766H209.754V371.701H211.004V64.6766Z" fill="url(#paint29_linear)"/>
<path d="M104.934 464.008C104.934 461.784 106.624 459.98 108.708 459.98C110.792 459.98 112.482 461.784 112.482 464.008C112.482 466.232 110.792 468.037 108.708 468.037C106.624 468.061 104.934 466.232 104.934 464.008Z" fill="url(#paint30_linear)"/>
<path d="M109.356 154.686H108.106V461.71H109.356V154.686Z" fill="url(#paint31_linear)"/>
<path d="M184.84 225.862C184.84 223.638 186.53 221.834 188.614 221.834C190.698 221.834 192.388 223.638 192.388 225.862C192.388 228.087 190.698 229.891 188.614 229.891C186.53 229.916 184.84 228.111 184.84 225.862Z" fill="url(#paint32_linear)"/>
<path d="M189.262 53.6788H188.012V223.539H189.262V53.6788Z" fill="url(#paint33_linear)"/>
<path d="M16.8773 316.316C16.8773 314.092 18.5676 312.288 20.6515 312.288C22.7354 312.288 24.4257 314.092 24.4257 316.316C24.4257 318.54 22.7354 320.345 20.6515 320.345C18.5676 320.345 16.8773 318.54 16.8773 316.316Z" fill="url(#paint34_linear)"/>
<path d="M21.2998 144.133H20.0494V313.993H21.2998V144.133Z" fill="url(#paint35_linear)"/>
<path d="M1256.16 380.722C1256.16 378.497 1257.85 376.693 1259.93 376.693C1262.02 376.693 1263.71 378.497 1263.71 380.722C1263.71 382.946 1262.02 384.75 1259.93 384.75C1257.85 384.775 1256.16 382.946 1256.16 380.722Z" fill="url(#paint36_linear)"/>
<path d="M1260.56 316.366H1259.31V378.423H1260.56V316.366Z" fill="url(#paint37_linear)"/>
<path d="M1158.79 290.614C1158.79 288.389 1160.48 286.585 1162.57 286.585C1164.65 286.585 1166.34 288.389 1166.34 290.614C1166.34 292.838 1164.65 294.642 1162.57 294.642C1160.48 294.642 1158.79 292.838 1158.79 290.614Z" fill="url(#paint38_linear)"/>
<path d="M1163.19 127.673H1161.94V288.291H1163.19V127.673Z" fill="url(#paint39_linear)"/>
<path d="M1431.74 315.155C1431.74 312.931 1433.43 311.127 1435.51 311.127C1437.6 311.127 1439.29 312.931 1439.29 315.155C1439.29 317.379 1437.6 319.183 1435.51 319.183C1433.43 319.183 1431.74 317.379 1431.74 315.155Z" fill="url(#paint40_linear)"/>
<path d="M1436.14 152.215H1434.89V312.832H1436.14V152.215Z" fill="url(#paint41_linear)"/>
<path d="M1115.75 151.745C1115.75 149.521 1117.44 147.717 1119.52 147.717C1121.61 147.717 1123.3 149.521 1123.3 151.745C1123.3 153.969 1121.61 155.773 1119.52 155.773C1117.46 155.798 1115.75 153.994 1115.75 151.745Z" fill="url(#paint42_linear)"/>
<path d="M1120.17 60.4508H1118.92V149.446H1120.17V60.4508Z" fill="url(#paint43_linear)"/>
<path d="M1232.61 221.884C1232.61 219.659 1234.3 217.855 1236.38 217.855C1238.47 217.855 1240.16 219.659 1240.16 221.884C1240.16 224.108 1238.47 225.912 1236.38 225.912C1234.3 225.937 1232.61 224.108 1232.61 221.884Z" fill="url(#paint44_linear)"/>
<path d="M1237.01 130.59H1235.76V219.585H1237.01V130.59Z" fill="url(#paint45_linear)"/>
<path d="M1385.15 191.807C1385.15 189.582 1386.84 187.778 1388.93 187.778C1391.01 187.778 1392.7 189.582 1392.7 191.807C1392.7 194.031 1391.01 195.835 1388.93 195.835C1386.84 195.86 1385.15 194.056 1385.15 191.807Z" fill="url(#paint46_linear)"/>
<path d="M1389.57 100.512H1388.32V189.483H1389.57V100.512Z" fill="url(#paint47_linear)"/>
<path d="M1352.09 228.902C1352.09 226.678 1353.78 224.874 1355.86 224.874C1357.95 224.874 1359.64 226.678 1359.64 228.902C1359.64 231.127 1357.95 232.931 1355.86 232.931C1353.78 232.931 1352.09 231.127 1352.09 228.902Z" fill="url(#paint48_linear)"/>
<path d="M1356.51 137.608H1355.26V226.604H1356.51V137.608Z" fill="url(#paint49_linear)"/>
<path d="M1221.52 296.273C1221.52 294.049 1223.21 292.245 1225.29 292.245C1227.38 292.245 1229.07 294.049 1229.07 296.273C1229.07 298.498 1227.38 300.302 1225.29 300.302C1223.21 300.326 1221.52 298.498 1221.52 296.273Z" fill="url(#paint50_linear)"/>
<path d="M1225.94 127.055H1224.69V293.95H1225.94V127.055Z" fill="url(#paint51_linear)"/>
<path d="M1243.49 265.677C1243.49 263.453 1245.18 261.649 1247.27 261.649C1249.35 261.649 1251.04 263.453 1251.04 265.677C1251.04 267.901 1249.35 269.706 1247.27 269.706C1245.18 269.706 1243.49 267.901 1243.49 265.677Z" fill="url(#paint52_linear)"/>
<path d="M1247.92 130.12H1246.67V263.354H1247.92V130.12Z" fill="url(#paint53_linear)"/>
<path d="M1189.64 442.655C1189.64 440.431 1191.33 438.627 1193.41 438.627C1195.49 438.627 1197.18 440.431 1197.18 442.655C1197.18 444.879 1195.49 446.684 1193.41 446.684C1191.35 446.684 1189.64 444.879 1189.64 442.655Z" fill="url(#paint54_linear)"/>
<path d="M1194.06 133.308H1192.81V440.332H1194.06V133.308Z" fill="url(#paint55_linear)"/>
<path d="M1299.74 309.347C1299.74 307.123 1301.43 305.319 1303.51 305.319C1305.59 305.319 1307.28 307.123 1307.28 309.347C1307.28 311.571 1305.59 313.375 1303.51 313.375C1301.43 313.375 1299.74 311.571 1299.74 309.347Z" fill="url(#paint56_linear)"/>
<path d="M1304.16 0H1302.91V307.024H1304.16V0Z" fill="url(#paint57_linear)"/>
<path d="M1357.04 326.523C1357.04 324.299 1358.73 322.495 1360.82 322.495C1362.9 322.495 1364.59 324.299 1364.59 326.523C1364.59 328.748 1362.9 330.552 1360.82 330.552C1358.73 330.552 1357.04 328.748 1357.04 326.523Z" fill="url(#paint58_linear)"/>
<path d="M1361.44 17.1764H1360.19V324.2H1361.44V17.1764Z" fill="url(#paint59_linear)"/>
<path d="M1125.78 510.248C1125.78 508.024 1127.47 506.22 1129.55 506.22C1131.63 506.22 1133.32 508.024 1133.32 510.248C1133.32 512.473 1131.63 514.277 1129.55 514.277C1127.49 514.277 1125.78 512.473 1125.78 510.248Z" fill="url(#paint60_linear)"/>
<path d="M1130.2 200.901H1128.95V507.925H1130.2V200.901Z" fill="url(#paint61_linear)"/>
<path d="M1428.77 257.695H1427.52V564.719H1428.77V257.695Z" fill="url(#paint62_linear)"/>
<path d="M1367.32 388.63C1367.32 386.406 1369.01 384.602 1371.1 384.602C1373.18 384.602 1374.87 386.406 1374.87 388.63C1374.87 390.854 1373.18 392.659 1371.1 392.659C1369.01 392.659 1367.32 390.854 1367.32 388.63Z" fill="url(#paint63_linear)"/>
<path d="M1371.75 79.2831H1370.5V386.307H1371.75V79.2831Z" fill="url(#paint64_linear)"/>
<path d="M1076.39 428.197C1076.39 425.973 1078.08 424.169 1080.16 424.169C1082.25 424.169 1083.94 425.973 1083.94 428.197C1083.94 430.422 1082.25 432.226 1080.16 432.226C1078.08 432.251 1076.39 430.446 1076.39 428.197Z" fill="url(#paint65_linear)"/>
<path d="M1080.79 256.014H1079.54V425.874H1080.79V256.014Z" fill="url(#paint66_linear)"/>
<path d="M1141.45 243.089C1141.45 240.864 1143.14 239.06 1145.23 239.06C1147.31 239.06 1149 240.864 1149 243.089C1149 245.313 1147.31 247.117 1145.23 247.117C1143.14 247.142 1141.45 245.338 1141.45 243.089Z" fill="url(#paint67_linear)"/>
<path d="M1145.87 117.763H1144.62V240.79H1145.87V117.763Z" fill="url(#paint68_linear)"/>
<path d="M1347.22 460.202C1347.22 457.978 1348.92 456.174 1351 456.174C1353.08 456.174 1354.77 457.978 1354.77 460.202C1354.77 462.427 1353.08 464.231 1351 464.231C1348.92 464.231 1347.22 462.427 1347.22 460.202Z" fill="url(#paint69_linear)"/>
<path d="M1351.65 287.994H1350.4V457.855H1351.65V287.994Z" fill="url(#paint70_linear)"/>
<defs>
<linearGradient id="paint0_linear" x1="199.768" y1="315.457" x2="199.768" y2="245.437" gradientUnits="userSpaceOnUse">
<stop stop-color="#A4FFFF"/>
<stop offset="1" stop-color="#A4FFFF" stop-opacity="0"/>
</linearGradient>
<linearGradient id="paint1_linear" x1="199.77" y1="315.456" x2="199.77" y2="245.438" gradientUnits="userSpaceOnUse">
<stop stop-color="#A4FFFF"/>
<stop offset="1" stop-color="#A4FFFF" stop-opacity="0"/>
</linearGradient>
<linearGradient id="paint2_linear" x1="28.5469" y1="205.897" x2="28.5469" y2="135.856" gradientUnits="userSpaceOnUse">
<stop stop-color="#A4FFFF"/>
<stop offset="1" stop-color="#A4FFFF" stop-opacity="0"/>
</linearGradient>
<linearGradient id="paint3_linear" x1="28.5467" y1="205.905" x2="28.5467" y2="135.884" gradientUnits="userSpaceOnUse">
<stop stop-color="#A4FFFF"/>
<stop offset="1" stop-color="#A4FFFF" stop-opacity="0"/>
</linearGradient>
<linearGradient id="paint4_linear" x1="75.4732" y1="111.226" x2="75.4732" y2="41.2064" gradientUnits="userSpaceOnUse">
<stop stop-color="#A4FFFF"/>
<stop offset="1" stop-color="#A4FFFF" stop-opacity="0"/>
</linearGradient>
<linearGradient id="paint5_linear" x1="75.4729" y1="111.225" x2="75.4729" y2="41.2073" gradientUnits="userSpaceOnUse">
<stop stop-color="#A4FFFF"/>
<stop offset="1" stop-color="#A4FFFF" stop-opacity="0"/>
</linearGradient>
<linearGradient id="paint6_linear" x1="113.171" y1="131.676" x2="113.171" y2="61.6537" gradientUnits="userSpaceOnUse">
<stop stop-color="#A4FFFF"/>
<stop offset="1" stop-color="#A4FFFF" stop-opacity="0"/>
</linearGradient>
<linearGradient id="paint7_linear" x1="113.171" y1="131.676" x2="113.171" y2="61.6568" gradientUnits="userSpaceOnUse">
<stop stop-color="#A4FFFF"/>
<stop offset="1" stop-color="#A4FFFF" stop-opacity="0"/>
</linearGradient>
<linearGradient id="paint8_linear" x1="174.665" y1="361.411" x2="174.665" y2="291.41" gradientUnits="userSpaceOnUse">
<stop stop-color="#A4FFFF"/>
<stop offset="1" stop-color="#A4FFFF" stop-opacity="0"/>
</linearGradient>
<linearGradient id="paint9_linear" x1="174.666" y1="361.404" x2="174.666" y2="291.386" gradientUnits="userSpaceOnUse">
<stop stop-color="#A4FFFF"/>
<stop offset="1" stop-color="#A4FFFF" stop-opacity="0"/>
</linearGradient>
<linearGradient id="paint10_linear" x1="233.071" y1="102.282" x2="233.071" y2="32.2625" gradientUnits="userSpaceOnUse">
<stop stop-color="#A4FFFF"/>
<stop offset="1" stop-color="#A4FFFF" stop-opacity="0"/>
</linearGradient>
<linearGradient id="paint11_linear" x1="233.07" y1="102.281" x2="233.07" y2="32.263" gradientUnits="userSpaceOnUse">
<stop stop-color="#A4FFFF"/>
<stop offset="1" stop-color="#A4FFFF" stop-opacity="0"/>
</linearGradient>
<linearGradient id="paint12_linear" x1="128.909" y1="98.3315" x2="128.909" y2="28.3119" gradientUnits="userSpaceOnUse">
<stop stop-color="#A4FFFF"/>
<stop offset="1" stop-color="#A4FFFF" stop-opacity="0"/>
</linearGradient>
<linearGradient id="paint13_linear" x1="128.91" y1="108.508" x2="128.91" y2="73.4979" gradientUnits="userSpaceOnUse">
<stop stop-color="#A4FFFF"/>
<stop offset="1" stop-color="#A4FFFF" stop-opacity="0"/>
</linearGradient>
<linearGradient id="paint14_linear" x1="271.269" y1="321.981" x2="271.269" y2="251.961" gradientUnits="userSpaceOnUse">
<stop stop-color="#A4FFFF"/>
<stop offset="1" stop-color="#A4FFFF" stop-opacity="0"/>
</linearGradient>
<linearGradient id="paint15_linear" x1="271.269" y1="332.157" x2="271.269" y2="297.148" gradientUnits="userSpaceOnUse">
<stop stop-color="#A4FFFF"/>
<stop offset="1" stop-color="#A4FFFF" stop-opacity="0"/>
</linearGradient>
<linearGradient id="paint16_linear" x1="2.65632" y1="11.1391" x2="2.65632" y2="-58.8808" gradientUnits="userSpaceOnUse">
<stop stop-color="#A4FFFF"/>
<stop offset="1" stop-color="#A4FFFF" stop-opacity="0"/>
</linearGradient>
<linearGradient id="paint17_linear" x1="2.65536" y1="21.3154" x2="2.65536" y2="-13.6945" gradientUnits="userSpaceOnUse">
<stop stop-color="#A4FFFF"/>
<stop offset="1" stop-color="#A4FFFF" stop-opacity="0"/>
</linearGradient>
<linearGradient id="paint18_linear" x1="54.1251" y1="86.2508" x2="54.1251" y2="16.2096" gradientUnits="userSpaceOnUse">
<stop stop-color="#A4FFFF"/>
<stop offset="1" stop-color="#A4FFFF" stop-opacity="0"/>
</linearGradient>
<linearGradient id="paint19_linear" x1="54.1251" y1="96.435" x2="54.1251" y2="61.4254" gradientUnits="userSpaceOnUse">
<stop stop-color="#A4FFFF"/>
<stop offset="1" stop-color="#A4FFFF" stop-opacity="0"/>
</linearGradient>
<linearGradient id="paint20_linear" x1="176.152" y1="24.6353" x2="176.152" y2="-45.3846" gradientUnits="userSpaceOnUse">
<stop stop-color="#A4FFFF"/>
<stop offset="1" stop-color="#A4FFFF" stop-opacity="0"/>
</linearGradient>
<linearGradient id="paint21_linear" x1="176.154" y1="34.8104" x2="176.154" y2="-0.195754" gradientUnits="userSpaceOnUse">
<stop stop-color="#A4FFFF"/>
<stop offset="1" stop-color="#A4FFFF" stop-opacity="0"/>
</linearGradient>
<linearGradient id="paint22_linear" x1="123.629" y1="350.188" x2="123.629" y2="280.168" gradientUnits="userSpaceOnUse">
<stop stop-color="#A4FFFF"/>
<stop offset="1" stop-color="#A4FFFF" stop-opacity="0"/>
</linearGradient>
<linearGradient id="paint23_linear" x1="123.628" y1="350.188" x2="123.628" y2="280.168" gradientUnits="userSpaceOnUse">
<stop stop-color="#A4FFFF"/>
<stop offset="1" stop-color="#A4FFFF" stop-opacity="0"/>
</linearGradient>
<linearGradient id="paint24_linear" x1="232.243" y1="302.964" x2="232.243" y2="232.923" gradientUnits="userSpaceOnUse">
<stop stop-color="#A4FFFF"/>
<stop offset="1" stop-color="#A4FFFF" stop-opacity="0"/>
</linearGradient>
<linearGradient id="paint25_linear" x1="232.244" y1="302.97" x2="232.244" y2="232.952" gradientUnits="userSpaceOnUse">
<stop stop-color="#A4FFFF"/>
<stop offset="1" stop-color="#A4FFFF" stop-opacity="0"/>
</linearGradient>
<linearGradient id="paint26_linear" x1="50.3433" y1="510.33" x2="50.3433" y2="385.631" gradientUnits="userSpaceOnUse">
<stop stop-color="#A4FFFF"/>
<stop offset="1" stop-color="#A4FFFF" stop-opacity="0"/>
</linearGradient>
<linearGradient id="paint27_linear" x1="50.3445" y1="479.128" x2="50.3445" y2="249.739" gradientUnits="userSpaceOnUse">
<stop stop-color="#A4FFFF"/>
<stop offset="1" stop-color="#A4FFFF" stop-opacity="0"/>
</linearGradient>
<linearGradient id="paint28_linear" x1="210.377" y1="334.534" x2="210.377" y2="209.835" gradientUnits="userSpaceOnUse">
<stop stop-color="#A4FFFF"/>
<stop offset="1" stop-color="#A4FFFF" stop-opacity="0"/>
</linearGradient>
<linearGradient id="paint29_linear" x1="210.378" y1="303.331" x2="210.378" y2="73.9432" gradientUnits="userSpaceOnUse">
<stop stop-color="#A4FFFF"/>
<stop offset="1" stop-color="#A4FFFF" stop-opacity="0"/>
</linearGradient>
<linearGradient id="paint30_linear" x1="108.721" y1="424.523" x2="108.721" y2="299.825" gradientUnits="userSpaceOnUse">
<stop stop-color="#A4FFFF"/>
<stop offset="1" stop-color="#A4FFFF" stop-opacity="0"/>
</linearGradient>
<linearGradient id="paint31_linear" x1="108.722" y1="393.319" x2="108.722" y2="163.932" gradientUnits="userSpaceOnUse">
<stop stop-color="#A4FFFF"/>
<stop offset="1" stop-color="#A4FFFF" stop-opacity="0"/>
</linearGradient>
<linearGradient id="paint32_linear" x1="188.624" y1="186.369" x2="188.624" y2="61.6321" gradientUnits="userSpaceOnUse">
<stop stop-color="#A4FFFF"/>
<stop offset="1" stop-color="#A4FFFF" stop-opacity="0"/>
</linearGradient>
<linearGradient id="paint33_linear" x1="188.624" y1="185.724" x2="188.624" y2="58.8085" gradientUnits="userSpaceOnUse">
<stop stop-color="#A4FFFF"/>
<stop offset="1" stop-color="#A4FFFF" stop-opacity="0"/>
</linearGradient>
<linearGradient id="paint34_linear" x1="20.6633" y1="276.828" x2="20.6633" y2="152.167" gradientUnits="userSpaceOnUse">
<stop stop-color="#A4FFFF"/>
<stop offset="1" stop-color="#A4FFFF" stop-opacity="0"/>
</linearGradient>
<linearGradient id="paint35_linear" x1="20.6633" y1="276.159" x2="20.6633" y2="149.245" gradientUnits="userSpaceOnUse">
<stop stop-color="#A4FFFF"/>
<stop offset="1" stop-color="#A4FFFF" stop-opacity="0"/>
</linearGradient>
<linearGradient id="paint36_linear" x1="1259.93" y1="358.066" x2="1259.93" y2="288.068" gradientUnits="userSpaceOnUse">
<stop stop-color="#A4FFFF"/>
<stop offset="1" stop-color="#A4FFFF" stop-opacity="0"/>
</linearGradient>
<linearGradient id="paint37_linear" x1="1259.93" y1="364.218" x2="1259.93" y2="315.388" gradientUnits="userSpaceOnUse">
<stop stop-color="#A4FFFF"/>
<stop offset="1" stop-color="#A4FFFF" stop-opacity="0"/>
</linearGradient>
<linearGradient id="paint38_linear" x1="1162.57" y1="267.943" x2="1162.57" y2="197.924" gradientUnits="userSpaceOnUse">
<stop stop-color="#A4FFFF"/>
<stop offset="1" stop-color="#A4FFFF" stop-opacity="0"/>
</linearGradient>
<linearGradient id="paint39_linear" x1="1162.57" y1="251.561" x2="1162.57" y2="125.179" gradientUnits="userSpaceOnUse">
<stop stop-color="#A4FFFF"/>
<stop offset="1" stop-color="#A4FFFF" stop-opacity="0"/>
</linearGradient>
<linearGradient id="paint40_linear" x1="1435.51" y1="292.466" x2="1435.51" y2="222.424" gradientUnits="userSpaceOnUse">
<stop stop-color="#A4FFFF"/>
<stop offset="1" stop-color="#A4FFFF" stop-opacity="0"/>
</linearGradient>
<linearGradient id="paint41_linear" x1="1435.51" y1="276.091" x2="1435.51" y2="149.705" gradientUnits="userSpaceOnUse">
<stop stop-color="#A4FFFF"/>
<stop offset="1" stop-color="#A4FFFF" stop-opacity="0"/>
</linearGradient>
<linearGradient id="paint42_linear" x1="1119.54" y1="129.083" x2="1119.54" y2="59.0629" gradientUnits="userSpaceOnUse">
<stop stop-color="#A4FFFF"/>
<stop offset="1" stop-color="#A4FFFF" stop-opacity="0"/>
</linearGradient>
<linearGradient id="paint43_linear" x1="1119.54" y1="129.083" x2="1119.54" y2="59.0636" gradientUnits="userSpaceOnUse">
<stop stop-color="#A4FFFF"/>
<stop offset="1" stop-color="#A4FFFF" stop-opacity="0"/>
</linearGradient>
<linearGradient id="paint44_linear" x1="1236.38" y1="199.207" x2="1236.38" y2="129.166" gradientUnits="userSpaceOnUse">
<stop stop-color="#A4FFFF"/>
<stop offset="1" stop-color="#A4FFFF" stop-opacity="0"/>
</linearGradient>
<linearGradient id="paint45_linear" x1="1236.38" y1="199.213" x2="1236.38" y2="129.194" gradientUnits="userSpaceOnUse">
<stop stop-color="#A4FFFF"/>
<stop offset="1" stop-color="#A4FFFF" stop-opacity="0"/>
</linearGradient>
<linearGradient id="paint46_linear" x1="1388.94" y1="169.146" x2="1388.94" y2="99.1259" gradientUnits="userSpaceOnUse">
<stop stop-color="#A4FFFF"/>
<stop offset="1" stop-color="#A4FFFF" stop-opacity="0"/>
</linearGradient>
<linearGradient id="paint47_linear" x1="1388.94" y1="169.144" x2="1388.94" y2="99.1262" gradientUnits="userSpaceOnUse">
<stop stop-color="#A4FFFF"/>
<stop offset="1" stop-color="#A4FFFF" stop-opacity="0"/>
</linearGradient>
<linearGradient id="paint48_linear" x1="1355.88" y1="206.234" x2="1355.88" y2="136.214" gradientUnits="userSpaceOnUse">
<stop stop-color="#A4FFFF"/>
<stop offset="1" stop-color="#A4FFFF" stop-opacity="0"/>
</linearGradient>
<linearGradient id="paint49_linear" x1="1355.87" y1="206.234" x2="1355.87" y2="136.215" gradientUnits="userSpaceOnUse">
<stop stop-color="#A4FFFF"/>
<stop offset="1" stop-color="#A4FFFF" stop-opacity="0"/>
</linearGradient>
<linearGradient id="paint50_linear" x1="1225.31" y1="256.788" x2="1225.31" y2="132.089" gradientUnits="userSpaceOnUse">
<stop stop-color="#A4FFFF"/>
<stop offset="1" stop-color="#A4FFFF" stop-opacity="0"/>
</linearGradient>
<linearGradient id="paint51_linear" x1="1225.31" y1="256.79" x2="1225.31" y2="132.092" gradientUnits="userSpaceOnUse">
<stop stop-color="#A4FFFF"/>
<stop offset="1" stop-color="#A4FFFF" stop-opacity="0"/>
</linearGradient>
<linearGradient id="paint52_linear" x1="1247.28" y1="226.18" x2="1247.28" y2="101.481" gradientUnits="userSpaceOnUse">
<stop stop-color="#A4FFFF"/>
<stop offset="1" stop-color="#A4FFFF" stop-opacity="0"/>
</linearGradient>
<linearGradient id="paint53_linear" x1="1247.28" y1="233.675" x2="1247.28" y2="134.127" gradientUnits="userSpaceOnUse">
<stop stop-color="#A4FFFF"/>
<stop offset="1" stop-color="#A4FFFF" stop-opacity="0"/>
</linearGradient>
<linearGradient id="paint54_linear" x1="1193.43" y1="403.166" x2="1193.43" y2="278.467" gradientUnits="userSpaceOnUse">
<stop stop-color="#A4FFFF"/>
<stop offset="1" stop-color="#A4FFFF" stop-opacity="0"/>
</linearGradient>
<linearGradient id="paint55_linear" x1="1193.43" y1="371.961" x2="1193.43" y2="142.573" gradientUnits="userSpaceOnUse">
<stop stop-color="#A4FFFF"/>
<stop offset="1" stop-color="#A4FFFF" stop-opacity="0"/>
</linearGradient>
<linearGradient id="paint56_linear" x1="1303.52" y1="269.841" x2="1303.52" y2="145.104" gradientUnits="userSpaceOnUse">
<stop stop-color="#A4FFFF"/>
<stop offset="1" stop-color="#A4FFFF" stop-opacity="0"/>
</linearGradient>
<linearGradient id="paint57_linear" x1="1303.52" y1="238.647" x2="1303.52" y2="9.25916" gradientUnits="userSpaceOnUse">
<stop stop-color="#A4FFFF"/>
<stop offset="1" stop-color="#A4FFFF" stop-opacity="0"/>
</linearGradient>
<linearGradient id="paint58_linear" x1="1360.82" y1="287.022" x2="1360.82" y2="162.289" gradientUnits="userSpaceOnUse">
<stop stop-color="#A4FFFF"/>
<stop offset="1" stop-color="#A4FFFF" stop-opacity="0"/>
</linearGradient>
<linearGradient id="paint59_linear" x1="1360.82" y1="255.831" x2="1360.82" y2="26.441" gradientUnits="userSpaceOnUse">
<stop stop-color="#A4FFFF"/>
<stop offset="1" stop-color="#A4FFFF" stop-opacity="0"/>
</linearGradient>
<linearGradient id="paint60_linear" x1="1129.57" y1="470.758" x2="1129.57" y2="346.06" gradientUnits="userSpaceOnUse">
<stop stop-color="#A4FFFF"/>
<stop offset="1" stop-color="#A4FFFF" stop-opacity="0"/>
</linearGradient>
<linearGradient id="paint61_linear" x1="1129.57" y1="439.554" x2="1129.57" y2="210.168" gradientUnits="userSpaceOnUse">
<stop stop-color="#A4FFFF"/>
<stop offset="1" stop-color="#A4FFFF" stop-opacity="0"/>
</linearGradient>
<linearGradient id="paint62_linear" x1="1428.15" y1="496.345" x2="1428.15" y2="266.956" gradientUnits="userSpaceOnUse">
<stop stop-color="#A4FFFF"/>
<stop offset="1" stop-color="#A4FFFF" stop-opacity="0"/>
</linearGradient>
<linearGradient id="paint63_linear" x1="1371.11" y1="349.146" x2="1371.11" y2="224.485" gradientUnits="userSpaceOnUse">
<stop stop-color="#A4FFFF"/>
<stop offset="1" stop-color="#A4FFFF" stop-opacity="0"/>
</linearGradient>
<linearGradient id="paint64_linear" x1="1371.11" y1="317.93" x2="1371.11" y2="88.5425" gradientUnits="userSpaceOnUse">
<stop stop-color="#A4FFFF"/>
<stop offset="1" stop-color="#A4FFFF" stop-opacity="0"/>
</linearGradient>
<linearGradient id="paint65_linear" x1="1080.16" y1="388.719" x2="1080.16" y2="264.021" gradientUnits="userSpaceOnUse">
<stop stop-color="#A4FFFF"/>
<stop offset="1" stop-color="#A4FFFF" stop-opacity="0"/>
</linearGradient>
<linearGradient id="paint66_linear" x1="1080.17" y1="388.058" x2="1080.17" y2="261.146" gradientUnits="userSpaceOnUse">
<stop stop-color="#A4FFFF"/>
<stop offset="1" stop-color="#A4FFFF" stop-opacity="0"/>
</linearGradient>
<linearGradient id="paint67_linear" x1="1145.24" y1="203.61" x2="1145.24" y2="78.9114" gradientUnits="userSpaceOnUse">
<stop stop-color="#A4FFFF"/>
<stop offset="1" stop-color="#A4FFFF" stop-opacity="0"/>
</linearGradient>
<linearGradient id="paint68_linear" x1="1145.24" y1="213.385" x2="1145.24" y2="121.474" gradientUnits="userSpaceOnUse">
<stop stop-color="#A4FFFF"/>
<stop offset="1" stop-color="#A4FFFF" stop-opacity="0"/>
</linearGradient>
<linearGradient id="paint69_linear" x1="1351.02" y1="420.716" x2="1351.02" y2="296.056" gradientUnits="userSpaceOnUse">
<stop stop-color="#A4FFFF"/>
<stop offset="1" stop-color="#A4FFFF" stop-opacity="0"/>
</linearGradient>
<linearGradient id="paint70_linear" x1="1351.01" y1="420.044" x2="1351.01" y2="293.129" gradientUnits="userSpaceOnUse">
<stop stop-color="#A4FFFF"/>
<stop offset="1" stop-color="#A4FFFF" stop-opacity="0"/>
</linearGradient>
</defs>
</svg>
